#!OML:ASF H:\Terrain\Patient Classification 1\Walking\steve\steve.ASF
:FULLY-SPECIFIED
:DEGREES
197
root 6.55563 15.7444 -14.3754 7.31385 -7.33564 -6.39995
lowerback -2.01625 6.19917 6.99998
upperback -1.79843 8.16368 1.59866
thorax -0.00352654 4.03463 -2.00926
lowerneck -11.7673 -1.18839 -1.0051
upperneck 17.508 -1.50564 0.446746
head 7.32288 -0.740116 0.166522
rclavicle 2.61837e-014 5.1684e-015
rhumerus -4.2325 0.037543 -81.9039
rradius 35.9014
rwrist -8.98571
rhand -20.3232 -40.2168
rfingers 7.12502
rthumb 6.02777 -70.111
lclavicle 2.61837e-014 5.1684e-015
lhumerus -63.3677 7.25682 78.8417
lradius 19.4165
lwrist 6.34472
lhand -15.155 -9.31258
lfingers 7.12502
lthumb 11.0153 20.3784
rfemur 6.35093 -0.589412 26.5012
rtibia 18.6709
rfoot -4.98856 25.7506
rtoes 12.1514
lfemur -35.246 -0.279844 -9.15956
ltibia 11.2897
lfoot -13.5614 11.2048
ltoes -18.7382
198
root 6.57295 15.7479 -14.2024 7.40824 -7.56604 -6.39666
lowerback -2.13128 6.25596 6.82198
upperback -1.87901 8.23618 1.52431
thorax -0.0299739 4.06988 -1.97845
lowerneck -11.458 -1.16582 -0.970468
upperneck 17.2775 -1.48341 0.446788
head 7.19259 -0.728115 0.16537
rclavicle -1.05722e-013 -1.61016e-014
rhumerus -4.84806 -0.118338 -81.9738
rradius 36.3087
rwrist -9.31037
rhand -20.8132 -42.1954
rfingers 7.12502
rthumb 5.5547 -72.1026
lclavicle -1.05722e-013 -1.61016e-014
lhumerus -63.6738 7.52113 78.1686
lradius 19.2359
lwrist 6.09127
lhand -15.4595 -9.08859
lfingers 7.12502
lthumb 10.7215 20.6178
rfemur 6.7698 0.145226 26.4038
rtibia 18.6785
rfoot -4.76792 25.182
rtoes 12.4321
lfemur -35.5643 0.27296 -9.53823
ltibia 12.7122
lfoot -13.2232 10.5853
ltoes -15.2335
199
root 6.59065 15.7419 -14.0245 7.38531 -7.79691 -6.39916
lowerback -2.09915 6.30436 6.69075
upperback -1.97684 8.31084 1.44833
thorax -0.149566 4.10293 -1.99298
lowerneck -11.248 -1.18908 -1.08201
upperneck 17.3308 -1.53745 0.666233
head 7.17586 -0.741954 0.251009
rclavicle 6.68413e-015 5.96354e-016
rhumerus -5.87855 -0.374895 -82.1127
rradius 36.845
rwrist -9.7313
rhand -20.8638 -41.5841
rfingers 7.12502
rthumb 5.50584 -71.4926
lclavicle 6.68413e-015 5.96354e-016
lhumerus -63.8515 8.02955 77.1273
lradius 18.8969
lwrist 5.49219
lhand -15.9044 -8.34159
lfingers 7.12502
lthumb 10.2924 21.3866
rfemur 7.34427 0.468305 26.2163
rtibia 18.6235
rfoot -3.20703 24.798
rtoes 15.5275
lfemur -35.788 1.06595 -10.1151
ltibia 14.2558
lfoot -12.0976 10.4961
ltoes -12.5472
200
root 6.60991 15.7331 -13.8421 7.43623 -8.02736 -6.56526
lowerback -2.15229 6.37919 6.68243
upperback -1.97864 8.40599 1.45294
thorax -0.115911 4.15147 -1.97277
lowerneck -11.2849 -1.22746 -1.32646
upperneck 17.3589 -1.60486 0.991757
head 7.19698 -0.760888 0.39042
rclavicle -6.70401e-014 -3.26007e-014
rhumerus -6.67193 -0.586108 -82.1631
rradius 37.3231
rwrist -10.0314
rhand -20.6688 -40.514
rfingers 7.12502
rthumb 5.69416 -70.4175
lclavicle -6.70401e-014 -3.26007e-014
lhumerus -63.7284 8.89144 75.8224
lradius 18.4241
lwrist 4.34471
lhand -15.7288 -8.49831
lfingers 7.12502
lthumb 10.4617 21.2214
rfemur 7.99274 0.682908 26.1689
rtibia 18.4214
rfoot -1.36492 24.2578
rtoes 17.4088
lfemur -36.1078 1.89673 -10.532
ltibia 15.9148
lfoot -10.6189 10.7556
ltoes -12.4635
201
root 6.63013 15.7447 -13.6547 7.56688 -8.2551 -6.51732
lowerback -2.41644 6.45056 6.43833
upperback -1.92656 8.47999 1.38289
thorax 0.0675197 4.19651 -1.87389
lowerneck -11.4646 -1.23483 -1.41728
upperneck 17.2371 -1.62458 1.15006
head 7.19153 -0.761775 0.45404
rclavicle 7.48424e-014 -2.0276e-014
rhumerus -6.80954 -0.801471 -82.2328
rradius 37.2966
rwrist -10.0426
rhand -20.3033 -40.4642
rfingers 7.12502
rthumb 6.04702 -70.3579
lclavicle 7.48424e-014 -2.0276e-014
lhumerus -63.628 9.75572 74.4536
lradius 18.0057
lwrist 3.21141
lhand -14.7996 -9.84478
lfingers 7.12502
lthumb 11.358 19.8276
rfemur 8.67024 1.29875 26.0108
rtibia 18.0624
rfoot -0.509695 23.4478
rtoes 15.4852
lfemur -36.6133 2.25435 -10.8686
ltibia 17.6997
lfoot -9.32796 11.0934
ltoes -13.9272
202
root 6.65165 15.7591 -13.4683 7.69113 -8.33354 -6.50763
lowerback -2.59383 6.47385 6.29475
upperback -2.02192 8.5039 1.26441
thorax 0.0671265 4.20769 -1.9013
lowerneck -11.3977 -1.22317 -1.25594
upperneck 17.1458 -1.63352 1.11807
head 7.14849 -0.759004 0.416576
rclavicle -6.4282e-014 -2.70347e-014
rhumerus -7.35479 -1.10159 -82.4456
rradius 37.2382
rwrist -10.0162
rhand -19.9626 -40.7077
rfingers 7.12502
rthumb 6.37589 -70.5917
lclavicle -6.4282e-014 -2.70347e-014
lhumerus -63.7028 10.3293 73.0656
lradius 17.6237
lwrist 2.51146
lhand -14.591 -9.51101
lfingers 7.12502
lthumb 11.5592 20.1502
rfemur 9.24524 1.96338 25.9973
rtibia 17.8644
rfoot 0.0195861 22.6081
rtoes 13.1147
lfemur -37.1301 2.36525 -10.9841
ltibia 19.2334
lfoot -8.09907 10.8988
ltoes -15.1723
203
root 6.6729 15.7641 -13.2877 7.81545 -8.28536 -6.64849
lowerback -2.70312 6.47965 6.35329
upperback -2.12104 8.50612 1.16184
thorax 0.0490895 4.20576 -2.02944
lowerneck -11.346 -1.20909 -1.08987
upperneck 17.2091 -1.64147 1.08982
head 7.15831 -0.754601 0.379409
rclavicle 9.31306e-014 3.90612e-014
rhumerus -8.64778 -1.18334 -82.5973
rradius 37.8093
rwrist -10.3383
rhand -19.2863 -39.8739
rfingers 7.12502
rthumb 7.02876 -69.7372
lclavicle 9.31306e-014 3.90612e-014
lhumerus -63.5463 10.848 71.821
lradius 17.1622
lwrist 1.69837
lhand -15.0278 -8.75034
lfingers 7.12502
lthumb 11.1379 20.9341
rfemur 9.58792 2.51085 26.1516
rtibia 18.0574
rfoot 0.902914 21.8425
rtoes 13.366
lfemur -37.5654 2.39293 -10.8617
ltibia 20.4599
lfoot -7.49192 10.1799
ltoes -12.5075
